# xmcd CD database file
#
# Track frame offsets:
#	150
#	19175
#	44885
#	63737
#	87080
#	108985
#	135852
#	158530
#	196360
#	231175
#	248367
#	272260
#
# Disc length: 4038 seconds
#
# Revision: 0
# Processed by: cddbd v1.5.2PL0 Copyright (c) Steve Scherf et al.
# Submitted via: CDex 1.70beta2
#
DISCID=930fc40c
DTITLE=Johnny Payne and The Goodtime Junkies - 101 in the Shade
DYEAR=1995
DGENRE=Blues
TTITLE0=That man's got the blues
TTITLE1=I'm a hog for ya' baby
TTITLE2=Prisoner of Love
TTITLE3=Nothin' but a good thing
TTITLE4=It hurts me too
TTITLE5=Someday after a while
TTITLE6=Young Blood
TTITLE7=Mustang Sally
TTITLE8=Bring it on Home
TTITLE9=Damned if you do.  Damned if you don't.
TTITLE10=Get out of my life, woman
TTITLE11=Got my Mojo workin'
EXTD=YEAR: 1995
EXTT0=
EXTT1=
EXTT2=
EXTT3=
EXTT4=
EXTT5=
EXTT6=
EXTT7=
EXTT8=
EXTT9=
EXTT10=
EXTT11=
PLAYORDER=
